<svg width="279" height="287" viewBox="0 0 279 287" fill="none" xmlns="http://www.w3.org/2000/svg">
<g clip-path="url(#clip0_112_300)">
<path d="M195.657 287H119.571C118.686 286.999 117.839 286.647 117.213 286.021C116.588 285.395 116.236 284.546 116.235 283.661V230.413C116.236 229.528 116.588 228.679 117.213 228.053C117.838 227.427 118.686 227.075 119.571 227.074H195.657C196.542 227.075 197.39 227.427 198.015 228.053C198.641 228.679 198.992 229.528 198.993 230.413V283.661C198.992 284.546 198.641 285.395 198.015 286.021C197.39 286.647 196.542 286.999 195.657 287Z" fill="#F2F2F2"/>
<path d="M71.3171 148.196C71.8272 147.542 72.1879 146.785 72.374 145.977C72.56 145.168 72.5667 144.329 72.3937 143.518C72.2207 142.707 71.8721 141.944 71.3725 141.283C70.873 140.621 70.2346 140.077 69.5023 139.689L69.0228 88.7489L59.5112 93.1181L61.6033 142.385C61.0338 143.659 60.9512 145.099 61.3711 146.43C61.791 147.762 62.6843 148.893 63.8816 149.609C65.079 150.325 66.4972 150.577 67.8676 150.317C69.238 150.056 70.4654 149.301 71.3171 148.196Z" fill="#9E616A"/>
<path d="M71.0611 75.8519C71.0611 75.8519 61.8084 71.3593 60.5288 79.8355C59.2492 88.3117 53.9858 110.372 53.9858 110.372L69.9574 109.241L71.0611 75.8519Z" fill="#9E616A"/>
<path d="M71.3171 148.196C71.8272 147.542 72.1879 146.785 72.374 145.977C72.56 145.168 72.5667 144.329 72.3937 143.518C72.2207 142.707 71.8721 141.944 71.3725 141.283C70.873 140.621 70.2346 140.077 69.5023 139.689L69.0228 88.7489L59.5112 93.1181L61.6033 142.385C61.0338 143.659 60.9512 145.099 61.3711 146.43C61.791 147.762 62.6843 148.893 63.8816 149.609C65.079 150.325 66.4972 150.577 67.8676 150.317C69.238 150.056 70.4654 149.301 71.3171 148.196Z" fill="#9E616A"/>
<path d="M71.0611 75.8519C71.0611 75.8519 61.8084 71.3593 60.5288 79.8355C59.2492 88.3117 53.9858 110.372 53.9858 110.372L69.9574 109.241L71.0611 75.8519Z" fill="#6C63FF"/>
<path d="M44.2701 272.08C43.8965 272.098 43.5267 271.999 43.2107 271.799C42.8947 271.599 42.6479 271.306 42.5036 270.961C42.3593 270.615 42.3246 270.234 42.4041 269.868C42.4837 269.502 42.6736 269.17 42.9482 268.916C42.9942 268.733 43.0272 268.602 43.0732 268.419C43.0568 268.379 43.0402 268.339 43.0235 268.299C42.6472 267.409 42.0165 266.651 41.2108 266.118C40.405 265.586 39.4601 265.304 38.4948 265.308C37.5294 265.311 36.5867 265.6 35.7849 266.139C34.9831 266.677 34.3581 267.44 33.9884 268.333C32.5106 271.895 30.6292 275.464 30.1659 279.231C29.9619 280.896 30.0479 282.584 30.4203 284.219C26.9494 276.641 25.1471 268.404 25.1355 260.067C25.1348 257.975 25.2509 255.884 25.4833 253.805C25.6754 252.101 25.9419 250.408 26.2828 248.728C28.1431 239.612 32.1373 231.067 37.9372 223.796C40.7444 222.263 43.0146 219.905 44.4419 217.041C44.9589 216.011 45.3244 214.912 45.5269 213.778C45.2102 213.819 44.8883 213.845 44.5717 213.866C44.473 213.871 44.3692 213.876 44.2706 213.882L44.2334 213.883C43.8853 213.899 43.5402 213.814 43.2395 213.637C42.9389 213.461 42.6955 213.202 42.5387 212.891C42.3818 212.579 42.3183 212.229 42.3556 211.882C42.393 211.536 42.5297 211.207 42.7492 210.936C42.8859 210.768 43.0227 210.6 43.1596 210.431C43.3673 210.171 43.5801 209.917 43.7878 209.657C43.8117 209.632 43.8343 209.606 43.8553 209.579C44.0941 209.283 44.3329 208.992 44.5717 208.696C44.1358 208.019 43.5495 207.451 42.8586 207.038C40.4654 205.635 37.1637 206.607 35.435 208.774C33.7011 210.941 33.3741 213.98 33.9762 216.688C34.5684 218.991 35.548 221.177 36.873 223.152C36.7432 223.318 36.6082 223.479 36.4784 223.646C34.106 226.699 32.0383 229.978 30.3049 233.436C30.7264 229.562 30.2233 225.644 28.8369 222.004C27.4318 218.611 24.7981 215.753 22.4789 212.82C19.6931 209.297 13.9806 210.834 13.4898 215.3C13.4851 215.344 13.4804 215.387 13.4759 215.43C13.8204 215.625 14.1576 215.831 14.4875 216.05C14.902 216.327 15.2232 216.723 15.4089 217.186C15.5947 217.649 15.6364 218.157 15.5286 218.644C15.4207 219.132 15.1684 219.575 14.8047 219.916C14.4409 220.257 13.9827 220.48 13.49 220.556L13.4396 220.564C13.5623 221.807 13.7792 223.039 14.0885 224.248C14.9846 227.626 16.5681 230.782 18.7397 233.518C20.9114 236.254 23.6243 238.512 26.7085 240.149C26.9109 240.253 27.1082 240.357 27.3107 240.456C25.5691 245.396 24.4767 250.542 24.0609 255.764C23.8256 258.845 23.8395 261.94 24.1025 265.019L24.0869 264.91C23.4224 261.486 21.5979 258.397 18.9216 256.164C14.9466 252.896 9.33061 251.692 5.04229 249.065C4.58654 248.772 4.05662 248.616 3.51503 248.614C2.97344 248.613 2.44275 248.767 1.98559 249.057C1.52842 249.348 1.16383 249.764 0.934819 250.255C0.705805 250.746 0.621923 251.293 0.693062 251.83C0.698814 251.868 0.704654 251.907 0.710594 251.945C1.34985 252.205 1.97227 252.506 2.57424 252.844C2.91872 253.038 3.25593 253.245 3.58586 253.463C4.00035 253.74 4.32152 254.136 4.50729 254.599C4.69305 255.062 4.73475 255.571 4.62693 256.058C4.5191 256.545 4.26679 256.988 3.90303 257.33C3.53927 257.671 3.08105 257.894 2.58838 257.97L2.5379 257.978C2.50155 257.983 2.47041 257.988 2.43413 257.993C3.52639 260.604 5.05942 263.007 6.96607 265.097C9.32143 267.627 12.1682 269.648 15.3318 271.038C18.4954 272.427 21.9093 273.155 25.3639 273.177H25.3692C26.3069 277.256 27.6657 281.227 29.4236 285.025H43.9072C43.9591 284.864 44.0058 284.697 44.0526 284.536C42.7119 284.621 41.366 284.54 40.0449 284.297C41.1195 282.977 42.194 281.647 43.2687 280.327C43.2926 280.303 43.3152 280.277 43.3362 280.249C43.8812 279.574 44.4315 278.903 44.9766 278.228L44.9769 278.227C45.0059 276.156 44.7686 274.091 44.2706 272.081L44.2701 272.08Z" fill="#F2F2F2"/>
<path d="M257.802 272.08C257.428 272.098 257.058 271.999 256.742 271.799C256.426 271.599 256.18 271.306 256.035 270.961C255.891 270.615 255.856 270.234 255.936 269.868C256.015 269.502 256.205 269.17 256.48 268.916C256.526 268.733 256.559 268.602 256.605 268.419C256.588 268.379 256.572 268.339 256.555 268.299C256.179 267.409 255.548 266.651 254.743 266.118C253.937 265.586 252.992 265.304 252.027 265.308C251.061 265.311 250.118 265.6 249.317 266.139C248.515 266.677 247.89 267.44 247.52 268.333C246.042 271.895 244.161 275.464 243.698 279.231C243.494 280.896 243.58 282.584 243.952 284.219C240.481 276.641 238.679 268.404 238.667 260.067C238.667 257.975 238.783 255.884 239.015 253.805C239.207 252.101 239.474 250.408 239.815 248.728C241.675 239.612 245.669 231.067 251.469 223.796C254.276 222.263 256.546 219.905 257.974 217.041C258.491 216.011 258.856 214.912 259.059 213.778C258.742 213.819 258.42 213.845 258.103 213.866C258.005 213.871 257.901 213.876 257.802 213.882L257.765 213.883C257.417 213.899 257.072 213.814 256.771 213.637C256.471 213.461 256.227 213.202 256.07 212.891C255.914 212.579 255.85 212.229 255.887 211.882C255.925 211.536 256.061 211.207 256.281 210.936C256.418 210.768 256.554 210.6 256.691 210.431C256.899 210.171 257.112 209.917 257.319 209.657C257.343 209.632 257.366 209.606 257.387 209.579C257.626 209.283 257.865 208.992 258.103 208.696C257.667 208.019 257.081 207.451 256.39 207.038C253.997 205.635 250.695 206.607 248.967 208.774C247.233 210.941 246.906 213.98 247.508 216.688C248.1 218.991 249.08 221.177 250.405 223.152C250.275 223.318 250.14 223.479 250.01 223.646C247.638 226.699 245.57 229.978 243.837 233.436C244.258 229.562 243.755 225.644 242.369 222.004C240.963 218.611 238.33 215.753 236.011 212.82C233.225 209.297 227.512 210.834 227.022 215.3C227.017 215.344 227.012 215.387 227.008 215.43C227.352 215.625 227.689 215.831 228.019 216.05C228.434 216.327 228.755 216.723 228.941 217.186C229.126 217.649 229.168 218.157 229.06 218.644C228.952 219.132 228.7 219.575 228.336 219.916C227.973 220.257 227.514 220.48 227.022 220.556L226.971 220.564C227.094 221.807 227.311 223.039 227.62 224.248C228.516 227.626 230.1 230.782 232.271 233.518C234.443 236.254 237.156 238.512 240.24 240.149C240.443 240.253 240.64 240.357 240.842 240.456C239.101 245.396 238.008 250.542 237.593 255.764C237.357 258.845 237.371 261.94 237.634 265.019L237.619 264.91C236.954 261.486 235.13 258.397 232.453 256.164C228.478 252.896 222.862 251.692 218.574 249.065C218.118 248.772 217.588 248.616 217.047 248.614C216.505 248.613 215.975 248.767 215.517 249.057C215.06 249.348 214.696 249.764 214.467 250.255C214.238 250.746 214.154 251.293 214.225 251.83C214.231 251.868 214.236 251.907 214.242 251.945C214.882 252.205 215.504 252.506 216.106 252.844C216.45 253.038 216.788 253.245 217.118 253.463C217.532 253.74 217.853 254.136 218.039 254.599C218.225 255.062 218.267 255.571 218.159 256.058C218.051 256.545 217.799 256.988 217.435 257.33C217.071 257.671 216.613 257.894 216.12 257.97L216.07 257.978C216.033 257.983 216.002 257.988 215.966 257.993C217.058 260.604 218.591 263.007 220.498 265.097C222.853 267.627 225.7 269.648 228.864 271.038C232.027 272.427 235.441 273.155 238.896 273.177H238.901C239.839 277.256 241.197 281.227 242.955 285.025H257.439C257.491 284.864 257.538 284.697 257.584 284.536C256.244 284.621 254.898 284.54 253.577 284.297C254.651 282.977 255.726 281.647 256.8 280.327C256.824 280.303 256.847 280.277 256.868 280.249C257.413 279.574 257.963 278.903 258.508 278.228L258.509 278.227C258.538 276.156 258.3 274.091 257.802 272.081L257.802 272.08Z" fill="#F2F2F2"/>
<path d="M202.027 284.93C201.986 284.93 201.944 284.929 201.902 284.928C200.842 284.867 199.847 284.4 199.122 283.623C198.398 282.846 198.001 281.819 198.014 280.757C198.014 274.292 193.4 270.52 188.828 269.651C184.256 268.782 178.582 270.596 176.213 276.612L174.06 282.022C172.199 283.881 169.677 284.925 167.047 284.925C164.417 284.925 161.895 283.881 160.034 282.022L159.906 281.895L159.985 281.732L198.014 203.849V201.941C197.962 201.352 197.962 200.76 198.015 200.172L198.014 4.01538C198.014 3.4777 198.122 2.94549 198.331 2.45032C198.541 1.95516 198.847 1.50712 199.233 1.1328C199.619 0.75848 200.075 0.465501 200.576 0.271236C201.077 0.0769704 201.612 -0.0146252 202.149 0.00189585C203.209 0.0625341 204.204 0.529974 204.929 1.30692C205.653 2.08387 206.05 3.11047 206.037 4.17304V200.195C206.09 200.783 206.089 201.375 206.036 201.963L206.037 203.849L244.145 281.895L244.018 282.022C242.156 283.881 239.634 284.925 237.004 284.925C234.375 284.925 231.852 283.881 229.991 282.022L229.934 281.936L227.838 276.612C225.469 270.597 219.796 268.783 215.223 269.651C210.651 270.52 206.037 274.292 206.037 280.757V280.915C206.037 281.979 205.615 283 204.863 283.753C204.111 284.506 203.091 284.93 202.027 284.93Z" fill="#E6E6E6"/>
<path d="M271.639 141.981H132.413C130.794 141.979 129.243 141.334 128.098 140.189C126.954 139.043 126.31 137.49 126.308 135.87V38.4355C126.31 36.8155 126.954 35.2623 128.098 34.1168C129.242 32.9713 130.794 32.3269 132.413 32.3251H271.639C273.257 32.327 274.809 32.9714 275.953 34.1169C277.097 35.2624 277.741 36.8155 277.743 38.4355V135.87C277.741 137.49 277.097 139.043 275.953 140.189C274.809 141.334 273.257 141.979 271.639 141.981Z" fill="white"/>
<path d="M271.639 142.738H132.412C130.593 142.736 128.849 142.012 127.563 140.725C126.277 139.437 125.553 137.691 125.551 135.871V38.4354C125.553 36.6145 126.277 34.8687 127.563 33.5811C128.849 32.2936 130.593 31.5693 132.412 31.5673H271.639C273.458 31.5694 275.202 32.2937 276.488 33.5812C277.774 34.8688 278.498 36.6145 278.5 38.4354V135.871C278.498 137.691 277.774 139.437 276.488 140.725C275.202 142.012 273.458 142.736 271.639 142.738ZM132.412 33.0832C130.995 33.0847 129.636 33.6491 128.633 34.6525C127.631 35.6559 127.067 37.0163 127.065 38.4354V135.871C127.067 137.29 127.631 138.65 128.633 139.653C129.636 140.657 130.995 141.221 132.412 141.223H271.639C273.056 141.221 274.415 140.657 275.418 139.653C276.42 138.65 276.984 137.29 276.986 135.871V38.4354C276.984 37.0164 276.42 35.6559 275.418 34.6525C274.415 33.6491 273.056 33.0847 271.639 33.0832H132.412Z" fill="#F2F2F2"/>
<path d="M222.611 38.4171H181.44C178.83 38.4142 176.328 37.375 174.482 35.5275C172.636 33.68 171.598 31.1752 171.595 28.5625V28.3833H232.456V28.5625C232.453 31.1752 231.414 33.68 229.569 35.5275C227.723 37.375 225.221 38.4142 222.611 38.4171Z" fill="#E6E6E6"/>
<path d="M222.79 148.073H181.619C179.009 148.07 176.507 147.03 174.661 145.183C172.816 143.335 171.777 140.831 171.774 138.218V138.039H232.635V138.218C232.632 140.831 231.594 143.335 229.748 145.183C227.902 147.03 225.4 148.07 222.79 148.073Z" fill="#E6E6E6"/>
<path d="M277.975 285.432C277.975 285.511 277.96 285.589 277.93 285.662C277.899 285.735 277.855 285.802 277.799 285.858C277.744 285.913 277.677 285.958 277.604 285.988C277.531 286.018 277.453 286.033 277.374 286.033H1.10072C0.941397 286.033 0.788616 285.97 0.67596 285.857C0.563304 285.744 0.5 285.591 0.5 285.432C0.5 285.272 0.563304 285.119 0.67596 285.007C0.788616 284.894 0.941397 284.831 1.10072 284.831H277.374C277.453 284.83 277.531 284.846 277.604 284.876C277.677 284.906 277.744 284.95 277.799 285.006C277.855 285.062 277.899 285.128 277.93 285.201C277.96 285.274 277.975 285.353 277.975 285.432Z" fill="#CCCCCC"/>
<path d="M93.5381 271.434H100.815L104.277 243.337L93.5366 243.338L93.5381 271.434Z" fill="#9E616A"/>
<path d="M91.0736 267.841L102.578 267.154V272.087L113.515 279.648C114.055 280.022 114.462 280.558 114.676 281.179C114.89 281.801 114.9 282.474 114.705 283.101C114.509 283.729 114.119 284.277 113.59 284.667C113.061 285.056 112.422 285.266 111.765 285.266H98.0694L95.7087 280.386L94.787 285.266H89.623L91.0736 267.841Z" fill="#2F2E41"/>
<path d="M68.7883 115.153L68.0755 118.553L67.4692 131.097L91.8229 127.797L93.6932 113.271L91.1081 109.02L68.7883 115.153Z" fill="#9E616A"/>
<path d="M56.7081 271.434H63.9853L67.4472 243.337L56.7065 243.338L56.7081 271.434Z" fill="#9E616A"/>
<path d="M52.7599 221.795L52.7597 221.719L55.4837 208.99L57.1635 202.653L52.4944 165.549C51.395 138.593 67.0187 125.635 67.1417 125.507L67.4805 125.155L92.5367 124.541C106.018 132.626 104.492 176.849 106.961 206.924C107.137 209.068 109.349 212.234 108.805 214.274C104.491 230.457 105.755 247.957 102.468 248.474L92.3919 248.334L87.1877 224.692L91.9916 206.66C89.8611 206.267 88.3887 195.841 88.3887 195.841C87.4603 194.737 84.2553 185.353 84.2553 185.353L79.9819 159.376L73.1161 204.056L74.7696 214.538L73.4012 218.142L67.5413 247.897L67.4791 248.376L56.4313 247.272L52.7599 221.795Z" fill="#2F2E41"/>
<path d="M54.244 267.841L65.748 267.154V272.087L76.6851 279.648C77.2254 280.022 77.6322 280.558 77.8463 281.179C78.0604 281.801 78.0705 282.474 77.8751 283.101C77.6798 283.729 77.2892 284.277 76.7603 284.667C76.2315 285.056 75.5922 285.266 74.9357 285.266H61.2398L58.8791 280.386L57.9574 285.266H52.7935L54.244 267.841Z" fill="#2F2E41"/>
<path d="M88.8802 66.0957L95.0226 72.9272L102.4 86.8468L98.7763 104.011L100.361 112.065L102.701 120.919C93.6851 125.911 82.976 119.017 73.1376 115.955L63.4575 120.236L63.9694 108.451L64.2319 78.7599C64.242 77.6195 64.4861 76.4934 64.9491 75.4514C65.4122 74.4094 66.0842 73.4738 66.9236 72.7026C67.7629 71.9315 68.7517 71.3412 69.8285 70.9686C70.9052 70.5959 72.047 70.4487 73.183 70.5362L79.6666 65.7541L88.8802 66.0957Z" fill="#6C63FF"/>
<path d="M87.1594 62.5197C94.3125 62.5197 100.111 56.7153 100.111 49.5552C100.111 42.3951 94.3125 36.5907 87.1594 36.5907C80.0063 36.5907 74.2075 42.3951 74.2075 49.5552C74.2075 56.7153 80.0063 62.5197 87.1594 62.5197Z" fill="#9E616A"/>
<path d="M102.4 44.8765C102.172 46.1467 96.7196 46.7598 96.8837 44.4998C95.8228 46.6276 94.2376 49.7154 96.2568 53.2525C95.4659 54.1148 94.9677 55.2053 94.8334 56.3682C94.699 57.5311 94.9355 58.7067 95.5089 59.7269C96.0835 60.6618 96.5649 61.651 96.9461 62.6801C97.023 62.93 97.0779 63.1861 97.1102 63.4455C97.1427 63.7062 97.1046 63.9708 96.9997 64.2117C96.8949 64.4526 96.7272 64.6607 96.5144 64.8144C96.3015 64.9681 96.0512 65.0616 95.7898 65.0851C95.5284 65.1086 95.2654 65.0613 95.0286 64.9482C89.5361 62.2554 79.958 62.7118 73.9492 64.3547C73.9892 63.1846 73.9732 62.0172 73.9011 60.8525C73.6818 62.309 73.0948 63.6855 72.1957 64.8516C71.1669 65.1561 70.1581 65.4727 69.1813 65.7853C69.0324 65.8336 68.8731 65.8406 68.7205 65.8055C68.5679 65.7704 68.4277 65.6945 68.3147 65.586C68.2018 65.4774 68.1203 65.3403 68.0791 65.1891C68.0378 65.0379 68.0383 64.8783 68.0804 64.7274C68.2708 64.0357 68.3064 63.3106 68.1845 62.6036C67.9363 61.137 67.1997 59.8106 66.6793 58.4202C66.1589 57.0297 65.8626 55.4308 66.4992 54.0885C67.4879 52.0047 70.2742 51.3676 71.5032 49.4161C72.8843 47.2242 71.8115 44.3672 72.0276 41.7825C72.3319 38.128 75.3223 35.1588 78.693 33.7242C84.5297 31.2398 91.8316 33.2518 96.2072 37.8439C96.8209 37.4291 97.5375 37.1927 98.2774 37.1608C99.0173 37.129 99.7515 37.303 100.399 37.6636C101.692 38.3568 102.62 38.7175 103.201 40.0679C103.709 41.254 102.632 43.6022 102.4 44.8765Z" fill="#2F2E41"/>
<path d="M96.8372 197.334L66.365 166.832C66.0112 166.477 65.8125 165.996 65.8125 165.495C65.8125 164.993 66.0112 164.512 66.365 164.157L87.6696 142.832C88.0242 142.478 88.5047 142.279 89.0057 142.279C89.5066 142.279 89.9871 142.478 90.3417 142.832L120.814 173.334C121.168 173.689 121.366 174.17 121.366 174.671C121.366 175.173 121.168 175.654 120.814 176.009L99.5092 197.334C99.1546 197.688 98.6741 197.887 98.1732 197.887C97.6723 197.887 97.1918 197.688 96.8372 197.334Z" fill="white"/>
<path d="M98.1733 198.392C97.8588 198.393 97.5473 198.332 97.2567 198.211C96.9661 198.091 96.7022 197.914 96.4804 197.691L66.0081 167.189C65.5596 166.74 65.3076 166.13 65.3076 165.495C65.3076 164.86 65.5596 164.25 66.0081 163.8L87.3129 142.475C87.7621 142.026 88.371 141.774 89.0058 141.774C89.6407 141.774 90.2496 142.026 90.6988 142.475L121.171 172.977C121.619 173.426 121.871 174.036 121.871 174.671C121.871 175.307 121.619 175.916 121.171 176.366L99.8661 197.691C99.6442 197.914 99.3804 198.091 99.0898 198.211C98.7992 198.332 98.4877 198.393 98.1733 198.392ZM89.0057 142.784C88.8239 142.784 88.6437 142.819 88.4757 142.889C88.3077 142.958 88.1551 143.06 88.0269 143.189L66.7219 164.515C66.4627 164.775 66.3172 165.128 66.3172 165.495C66.3172 165.862 66.4627 166.215 66.7219 166.475L97.1942 196.977C97.4583 197.228 97.8088 197.368 98.1732 197.368C98.5377 197.368 98.8882 197.228 99.1523 196.977L120.457 175.651C120.716 175.391 120.862 175.039 120.862 174.671C120.862 174.304 120.716 173.951 120.457 173.691L89.9847 143.189C89.8564 143.06 89.7039 142.958 89.5358 142.889C89.3677 142.819 89.1876 142.784 89.0057 142.784Z" fill="#E6E6E6"/>
<path d="M85.3559 145.669C84.8458 145.016 84.485 144.258 84.299 143.45C84.113 142.642 84.1062 141.803 84.2793 140.992C84.4523 140.181 84.8008 139.418 85.3004 138.756C85.8 138.094 86.4384 137.551 87.1707 137.163L87.6501 86.2224L97.1617 90.5917L95.0696 139.858C95.6391 141.133 95.7217 142.572 95.3018 143.904C94.8819 145.235 93.9887 146.366 92.7913 147.083C91.594 147.799 90.1757 148.051 88.8053 147.79C87.4349 147.53 86.2076 146.775 85.3559 145.669Z" fill="#9E616A"/>
<path d="M85.6118 73.3254C85.6118 73.3254 94.8645 68.8328 96.1441 77.309C97.4237 85.7852 102.687 107.846 102.687 107.846L86.7155 106.715L85.6118 73.3254Z" fill="#9E616A"/>
<path d="M85.3559 145.669C84.8458 145.016 84.485 144.258 84.299 143.45C84.113 142.642 84.1062 141.803 84.2793 140.992C84.4523 140.181 84.8008 139.418 85.3004 138.756C85.8 138.094 86.4384 137.551 87.1707 137.163L87.6501 86.2224L97.1617 90.5917L95.0696 139.858C95.6391 141.133 95.7217 142.572 95.3018 143.904C94.8819 145.235 93.9887 146.366 92.7913 147.083C91.594 147.799 90.1757 148.051 88.8053 147.79C87.4349 147.53 86.2076 146.775 85.3559 145.669Z" fill="#9E616A"/>
<path d="M85.6118 73.3254C85.6118 73.3254 94.8645 68.8328 96.1441 77.309C97.4237 85.7852 102.687 107.846 102.687 107.846L86.7155 106.715L85.6118 73.3254Z" fill="#6C63FF"/>
<path d="M146.825 74.816V83.132C146.825 83.3933 146.937 83.5753 147.161 83.678C146.974 83.9767 146.727 84.126 146.419 84.126C145.906 84.126 145.649 83.7993 145.649 83.146V74.83C145.649 74.5687 145.532 74.3867 145.299 74.284C145.467 73.9947 145.71 73.85 146.027 73.85C146.559 73.85 146.825 74.172 146.825 74.816ZM152.779 75.81C152.723 75.9687 152.625 76.048 152.485 76.048C152.345 76.048 152.186 75.9873 152.009 75.866L150.553 74.704C150.376 74.5733 150.217 74.508 150.077 74.508C149.937 74.508 149.816 74.5313 149.713 74.578C149.666 74.4473 149.643 74.3213 149.643 74.2C149.643 74.0787 149.676 73.9667 149.741 73.864C149.872 73.6307 150.091 73.514 150.399 73.514C150.707 73.514 151.034 73.724 151.379 74.144L152.779 75.81ZM162.467 79.17V83.132C162.467 83.3933 162.584 83.5753 162.817 83.678C162.649 83.9767 162.406 84.126 162.089 84.126C161.566 84.126 161.305 83.7993 161.305 83.146V79.254C161.305 78.274 160.876 77.784 160.017 77.784C159.55 77.784 159.107 77.9753 158.687 78.358C158.267 78.7407 157.978 79.254 157.819 79.898V83.132C157.819 83.3933 157.94 83.5753 158.183 83.678C157.987 83.9767 157.74 84.126 157.441 84.126C156.928 84.126 156.671 83.7993 156.671 83.146V79.254C156.671 78.274 156.242 77.784 155.383 77.784C154.916 77.784 154.473 77.9707 154.053 78.344C153.633 78.7173 153.344 79.2167 153.185 79.842V83.132C153.185 83.4027 153.302 83.5847 153.535 83.678C153.339 83.9767 153.096 84.126 152.807 84.126C152.284 84.126 152.023 83.7993 152.023 83.146V77.77C152.023 77.4993 151.906 77.3127 151.673 77.21C151.85 76.9113 152.093 76.762 152.401 76.762C152.924 76.762 153.185 77.0887 153.185 77.742V78.47C153.428 77.966 153.773 77.5553 154.221 77.238C154.669 76.9207 155.173 76.762 155.733 76.762C156.293 76.762 156.75 76.916 157.105 77.224C157.469 77.532 157.693 77.994 157.777 78.61C157.992 78.078 158.332 77.6393 158.799 77.294C159.266 76.9393 159.802 76.762 160.409 76.762C161.025 76.762 161.52 76.9673 161.893 77.378C162.276 77.7793 162.467 78.3767 162.467 79.17ZM179.256 77.994C179.303 77.798 179.326 77.6067 179.326 77.42C179.326 77.224 179.265 77.0653 179.144 76.944C179.34 76.8227 179.559 76.762 179.802 76.762C180.045 76.762 180.217 76.8833 180.32 77.126C180.367 77.238 180.39 77.378 180.39 77.546C180.39 77.714 180.362 77.9053 180.306 78.12L178.948 83.132C178.845 83.4867 178.715 83.7433 178.556 83.902C178.397 84.0513 178.183 84.126 177.912 84.126C177.38 84.126 177.025 83.7947 176.848 83.132L175.56 78.288L174.328 83.132C174.169 83.7947 173.815 84.126 173.264 84.126C172.713 84.126 172.359 83.7947 172.2 83.132L170.842 77.966C170.749 77.6113 170.557 77.4293 170.268 77.42C170.277 77.224 170.357 77.0653 170.506 76.944C170.665 76.8227 170.847 76.762 171.052 76.762C171.528 76.762 171.85 77.0887 172.018 77.742L173.292 83.23L174.734 77.644C174.818 77.3267 174.935 77.1027 175.084 76.972C175.233 76.832 175.429 76.762 175.672 76.762C175.924 76.762 176.12 76.832 176.26 76.972C176.409 77.1027 176.521 77.3267 176.596 77.644L177.982 83.328L179.256 77.994ZM187.43 78.302C187.01 77.8073 186.478 77.56 185.834 77.56C185.19 77.56 184.69 77.784 184.336 78.232C183.981 78.6707 183.804 79.3193 183.804 80.178C183.804 81.2887 184.018 82.096 184.448 82.6C184.886 83.0947 185.428 83.342 186.072 83.342C186.716 83.342 187.21 83.118 187.556 82.67C187.901 82.222 188.074 81.5687 188.074 80.71C188.074 79.59 187.859 78.7873 187.43 78.302ZM183.58 77.728C184.233 77.084 185.022 76.762 185.946 76.762C186.87 76.762 187.654 77.0887 188.298 77.742C188.951 78.386 189.278 79.2913 189.278 80.458C189.278 81.6153 188.951 82.516 188.298 83.16C187.654 83.804 186.87 84.126 185.946 84.126C185.022 84.126 184.233 83.804 183.58 83.16C182.936 82.516 182.614 81.6107 182.614 80.444C182.614 79.2773 182.936 78.372 183.58 77.728ZM193.663 77.742V78.26C194.055 77.2613 194.703 76.762 195.609 76.762C196.047 76.762 196.388 76.874 196.631 77.098C196.873 77.322 196.995 77.5833 196.995 77.882C196.995 78.1713 196.92 78.3953 196.771 78.554C196.621 78.7033 196.467 78.778 196.309 78.778C196.15 78.778 196.005 78.7593 195.875 78.722C195.893 78.6287 195.903 78.5073 195.903 78.358C195.903 77.8913 195.669 77.658 195.203 77.658C194.895 77.658 194.591 77.812 194.293 78.12C193.994 78.428 193.784 78.8993 193.663 79.534V83.132C193.663 83.4027 193.779 83.5847 194.013 83.678C193.817 83.9767 193.574 84.126 193.285 84.126C192.762 84.126 192.501 83.7993 192.501 83.146V77.77C192.501 77.4993 192.384 77.3127 192.151 77.21C192.328 76.9113 192.571 76.762 192.879 76.762C193.401 76.762 193.663 77.0887 193.663 77.742ZM200.815 74.326V79.87C201.851 79.422 202.617 78.932 203.111 78.4C203.615 77.8587 203.867 77.3127 203.867 76.762C204.185 76.762 204.437 76.8413 204.623 77C204.81 77.1587 204.903 77.3733 204.903 77.644C204.903 78.12 204.614 78.582 204.035 79.03C203.466 79.478 202.715 79.8513 201.781 80.15C203.107 81.7833 204.04 82.7073 204.581 82.922C204.815 83.0153 205.095 83.062 205.421 83.062C205.421 83.3607 205.342 83.6127 205.183 83.818C205.034 84.0233 204.824 84.126 204.553 84.126C204.124 84.126 203.685 83.8973 203.237 83.44C202.789 82.9733 201.982 81.956 200.815 80.388V83.132C200.815 83.4027 200.932 83.5847 201.165 83.678C200.969 83.9767 200.727 84.126 200.437 84.126C199.915 84.126 199.653 83.7993 199.653 83.146V74.354C199.653 74.0833 199.537 73.8967 199.303 73.794C199.462 73.5047 199.705 73.36 200.031 73.36C200.554 73.36 200.815 73.682 200.815 74.326ZM209.049 73.78C209.291 73.78 209.487 73.85 209.637 73.99C209.795 74.1207 209.875 74.3073 209.875 74.55C209.875 74.7833 209.772 74.998 209.567 75.194C209.371 75.3807 209.147 75.474 208.895 75.474C208.643 75.474 208.437 75.3993 208.279 75.25C208.12 75.1007 208.041 74.9047 208.041 74.662C208.041 74.4193 208.148 74.214 208.363 74.046C208.587 73.8687 208.815 73.78 209.049 73.78ZM209.595 77.742V83.132C209.595 83.4027 209.711 83.5847 209.945 83.678C209.749 83.9767 209.506 84.126 209.217 84.126C208.694 84.126 208.433 83.7993 208.433 83.146V77.77C208.433 77.4993 208.316 77.3127 208.083 77.21C208.26 76.9113 208.503 76.762 208.811 76.762C209.333 76.762 209.595 77.0887 209.595 77.742ZM219.194 79.17V83.132C219.194 83.3933 219.315 83.5753 219.558 83.678C219.362 83.9767 219.115 84.126 218.816 84.126C218.303 84.126 218.046 83.7993 218.046 83.146V79.254C218.046 78.274 217.617 77.784 216.758 77.784C216.291 77.784 215.848 77.9707 215.428 78.344C215.008 78.7173 214.719 79.2167 214.56 79.842V83.132C214.56 83.4027 214.677 83.5847 214.91 83.678C214.714 83.9767 214.471 84.126 214.182 84.126C213.659 84.126 213.398 83.7993 213.398 83.146V77.77C213.398 77.4993 213.281 77.3127 213.048 77.21C213.225 76.9113 213.468 76.762 213.776 76.762C214.299 76.762 214.56 77.0887 214.56 77.742V78.47C214.803 77.966 215.148 77.5553 215.596 77.238C216.044 76.9207 216.567 76.762 217.164 76.762C217.771 76.762 218.261 76.9673 218.634 77.378C219.007 77.7793 219.194 78.3767 219.194 79.17ZM224.342 81.116C224.66 81.4893 225.038 81.676 225.476 81.676C225.915 81.676 226.27 81.4987 226.54 81.144C226.811 80.78 226.946 80.3227 226.946 79.772C226.946 79.0253 226.774 78.4513 226.428 78.05C226.083 77.6393 225.691 77.434 225.252 77.434C224.823 77.434 224.473 77.6113 224.202 77.966C223.932 78.3207 223.796 78.75 223.796 79.254C223.796 79.3473 223.801 79.4453 223.81 79.548C223.857 80.2107 224.034 80.7333 224.342 81.116ZM226.764 84.448H224.972C224.31 84.448 223.773 84.3313 223.362 84.098C222.952 83.874 222.746 83.5007 222.746 82.978C222.746 82.446 223.064 82.0493 223.698 81.788C222.989 81.2653 222.634 80.5513 222.634 79.646C222.634 78.7407 222.91 78.036 223.46 77.532C224.011 77.0187 224.65 76.762 225.378 76.762C225.882 76.762 226.344 76.888 226.764 77.14C226.82 76.692 226.988 76.328 227.268 76.048C227.558 75.768 227.856 75.628 228.164 75.628C228.482 75.628 228.724 75.7027 228.892 75.852C229.07 76.0013 229.158 76.202 229.158 76.454C229.158 76.6967 229.06 76.874 228.864 76.986C228.659 76.8273 228.44 76.748 228.206 76.748C227.973 76.748 227.772 76.8227 227.604 76.972C227.446 77.112 227.343 77.2987 227.296 77.532C227.847 78.064 228.122 78.7453 228.122 79.576C228.122 80.4067 227.847 81.074 227.296 81.578C226.746 82.082 226.106 82.334 225.378 82.334C225.014 82.334 224.683 82.2733 224.384 82.152C223.974 82.2547 223.768 82.4553 223.768 82.754C223.768 82.978 223.871 83.1367 224.076 83.23C224.291 83.3233 224.632 83.37 225.098 83.37H226.708C227.39 83.37 227.908 83.5193 228.262 83.818C228.626 84.1167 228.808 84.5273 228.808 85.05C228.808 85.7407 228.468 86.3147 227.786 86.772C227.105 87.2293 226.279 87.458 225.308 87.458C224.338 87.458 223.572 87.276 223.012 86.912C222.452 86.548 222.168 86.1093 222.158 85.596C222.158 85.3253 222.233 85.106 222.382 84.938C222.541 84.77 222.737 84.6627 222.97 84.616C223.026 85.8573 223.876 86.478 225.518 86.478C226.265 86.478 226.844 86.3567 227.254 86.114C227.674 85.8807 227.884 85.568 227.884 85.176C227.884 84.6907 227.511 84.448 226.764 84.448ZM241.339 78.302C240.919 77.8073 240.387 77.56 239.743 77.56C239.099 77.56 238.6 77.784 238.245 78.232C237.891 78.6707 237.713 79.3193 237.713 80.178C237.713 81.2887 237.928 82.096 238.357 82.6C238.796 83.0947 239.337 83.342 239.981 83.342C240.625 83.342 241.12 83.118 241.465 82.67C241.811 82.222 241.983 81.5687 241.983 80.71C241.983 79.59 241.769 78.7873 241.339 78.302ZM237.489 77.728C238.143 77.084 238.931 76.762 239.855 76.762C240.779 76.762 241.563 77.0887 242.207 77.742C242.861 78.386 243.187 79.2913 243.187 80.458C243.187 81.6153 242.861 82.516 242.207 83.16C241.563 83.804 240.779 84.126 239.855 84.126C238.931 84.126 238.143 83.804 237.489 83.16C236.845 82.516 236.523 81.6107 236.523 80.444C236.523 79.2773 236.845 78.372 237.489 77.728ZM252.206 79.17V83.132C252.206 83.3933 252.328 83.5753 252.57 83.678C252.374 83.9767 252.127 84.126 251.828 84.126C251.315 84.126 251.058 83.7993 251.058 83.146V79.254C251.058 78.274 250.629 77.784 249.77 77.784C249.304 77.784 248.86 77.9707 248.44 78.344C248.02 78.7173 247.731 79.2167 247.572 79.842V83.132C247.572 83.4027 247.689 83.5847 247.922 83.678C247.726 83.9767 247.484 84.126 247.194 84.126C246.672 84.126 246.41 83.7993 246.41 83.146V77.77C246.41 77.4993 246.294 77.3127 246.06 77.21C246.238 76.9113 246.48 76.762 246.788 76.762C247.311 76.762 247.572 77.0887 247.572 77.742V78.47C247.815 77.966 248.16 77.5553 248.608 77.238C249.056 76.9207 249.579 76.762 250.176 76.762C250.783 76.762 251.273 76.9673 251.646 77.378C252.02 77.7793 252.206 78.3767 252.206 79.17ZM193.144 99.78C193.387 99.78 193.583 99.85 193.732 99.99C193.891 100.121 193.97 100.307 193.97 100.55C193.97 100.783 193.867 100.998 193.662 101.194C193.466 101.381 193.242 101.474 192.99 101.474C192.738 101.474 192.533 101.399 192.374 101.25C192.215 101.101 192.136 100.905 192.136 100.662C192.136 100.419 192.243 100.214 192.458 100.046C192.682 99.8687 192.911 99.78 193.144 99.78ZM193.69 103.742V109.132C193.69 109.403 193.807 109.585 194.04 109.678C193.844 109.977 193.601 110.126 193.312 110.126C192.789 110.126 192.528 109.799 192.528 109.146V103.77C192.528 103.499 192.411 103.313 192.178 103.21C192.355 102.911 192.598 102.762 192.906 102.762C193.429 102.762 193.69 103.089 193.69 103.742ZM198.669 103.784V108.222C198.669 108.567 198.734 108.815 198.865 108.964C199.005 109.113 199.229 109.188 199.537 109.188C200.116 109.188 200.662 108.941 201.175 108.446C201.334 108.53 201.413 108.665 201.413 108.852C201.413 109.169 201.208 109.463 200.797 109.734C200.386 109.995 199.882 110.126 199.285 110.126C198.09 110.126 197.493 109.505 197.493 108.264V103.784C196.737 103.756 196.359 103.574 196.359 103.238C196.359 103.061 196.415 102.925 196.527 102.832C196.854 102.879 197.106 102.902 197.283 102.902H197.493V101.768C197.493 101.507 197.376 101.32 197.143 101.208C197.33 100.919 197.572 100.774 197.871 100.774C198.403 100.774 198.669 101.101 198.669 101.754V102.902H201.021C201.058 102.967 201.077 103.047 201.077 103.14C201.077 103.569 200.34 103.784 198.865 103.784H198.669ZM205.661 105.87C205.652 106.029 205.647 106.234 205.647 106.486C205.647 106.738 205.685 106.971 205.759 107.186C205.666 107.326 205.54 107.396 205.381 107.396C205.027 107.396 204.831 107.088 204.793 106.472L204.597 100.284C204.597 100.228 204.597 100.177 204.597 100.13C204.597 99.8127 204.653 99.5607 204.765 99.374C204.877 99.178 205.041 99.08 205.255 99.08C205.47 99.08 205.638 99.178 205.759 99.374C205.89 99.5607 205.955 99.7987 205.955 100.088C205.955 100.153 205.951 100.219 205.941 100.284L205.661 105.87ZM205.437 108.474C205.661 108.474 205.839 108.539 205.969 108.67C206.1 108.801 206.165 108.978 206.165 109.202C206.165 109.426 206.067 109.636 205.871 109.832C205.675 110.028 205.461 110.126 205.227 110.126C205.003 110.126 204.826 110.061 204.695 109.93C204.574 109.799 204.513 109.622 204.513 109.398C204.513 109.165 204.611 108.955 204.807 108.768C205.003 108.572 205.213 108.474 205.437 108.474Z" fill="black"/>
</g>
<defs>
<clipPath id="clip0_112_300">
<rect width="278" height="287" fill="white" transform="translate(0.5)"/>
</clipPath>
</defs>
</svg>
